<svg width="30" height="28" viewBox="0 0 30 28" fill="none" xmlns="http://www.w3.org/2000/svg">
<path d="M11.0033 0.995941C9.3587 0.995941 7.99763 2.35707 7.99763 4.00164V4.99769H3.0018C1.3566 4.99769 0.00390625 6.35626 0.00390625 8.00144V10.0013C0.00390625 11.1372 0.646288 12.1746 1.65812 12.6809C1.77087 12.7373 1.88324 12.7944 1.99599 12.8508V23.9967C1.99599 25.6413 3.35709 27.0024 5.00169 27.0024H24.9967C26.6414 27.0024 28.0024 25.6413 28.0024 23.9967V12.8508C28.1157 12.7941 28.229 12.7375 28.3423 12.6809C29.3542 12.1747 29.9945 11.1372 29.9945 10.0013V8.00144C29.9945 6.35626 28.6438 4.99769 26.9986 4.99769H22.0008V4.00164C22.0008 2.35707 20.6417 0.995941 18.9971 0.995941H11.0033ZM11.0033 2.99584H18.9971C19.5684 2.99584 20.0009 3.43036 20.0009 4.00164V4.99769H9.99753V4.00164C9.99753 3.43036 10.432 2.99584 11.0033 2.99584ZM3.0018 6.99758H26.9986C27.5631 6.99758 28.0024 7.43692 28.0024 8.00144V10.0013C28.0024 10.3795 27.784 10.7247 27.4419 10.8958C23.4437 12.8961 19.4446 14.8942 15.4465 16.8955C15.1623 17.0376 14.8361 17.0376 14.552 16.8955C10.5538 14.8942 6.55667 12.8961 2.55846 10.8958C2.2163 10.7246 1.99599 10.3795 1.99599 10.0013V8.00144C1.99599 7.43692 2.43729 6.99758 3.0018 6.99758ZM14.9992 12.9992C14.447 12.9992 13.9993 13.4469 13.9993 13.9992C13.9993 14.5514 14.447 14.9991 14.9992 14.9991C15.5515 14.9991 15.9992 14.5514 15.9992 13.9992C15.9992 13.4469 15.5515 12.9992 14.9992 12.9992ZM3.99784 13.8507C7.21645 15.4608 10.4337 17.0718 13.6516 18.6825C14.497 19.1057 15.5014 19.1057 16.3468 18.6825C19.5648 17.0717 22.7838 15.4609 26.0026 13.8507V23.9967C26.0026 24.5679 25.568 25.0006 24.9967 25.0006H5.00169C4.43047 25.0006 3.99784 24.5679 3.99784 23.9967V13.8507Z" fill="#A31D00"/>
</svg>
